<svg version="1.0" xmlns="http://www.w3.org/2000/svg" width="346.667" height="346.667" viewBox="0 0 260 260"><path d="M1 120.5v70l41.3-.1c44.9-.1 50.7-.4 61.1-4 18-6.1 26.8-18.5 26.1-36.8-.6-13.7-7.6-24.3-19.6-29.9l-4.7-2.1 3.8-2.7c13.7-9.9 17.9-31 9-45.4-4.8-7.8-13.2-13.2-25.2-16.4-9-2.4-3.1-2.1-51-2.4L1 50.4v70.1zm76.8-43.7C86.7 80 90 84.2 89.6 92.3c-.3 6-2.8 9.5-9.2 12.7-4.7 2.4-5.6 2.5-25.9 2.5H33.6L33.5 92c-.1-8.5 0-15.9.3-16.3.2-.4 9.1-.7 19.8-.7 15.4.1 20.5.5 24.2 1.8zm5.3 56.2c9.1 2.4 14 8.6 13.4 16.7-.7 8.4-5.2 13.2-14.3 15.2-2.6.5-14.6.9-26.7.8l-22-.2v-16.3c0-11.7.3-16.5 1.2-17 2-1.2 43.6-.5 48.4.8zm52.9-12.5v70h15.3c8.3 0 15.7-.3 16.3-.7.6-.4 1-6.7.9-17.5l-.1-16.8 8.6-9.1c4.7-5 9-9.4 9.5-9.6.6-.3 11 11.7 23.2 26.6l22.1 27.1H260v-12.7l-10.7-13.6c-5.9-7.6-11.3-14.4-12-15.2-4-5-19.2-24.2-21.3-26.9-1.4-1.8-3.6-4.6-4.9-6.3l-2.4-2.9 2.9-3.1c1.6-1.8 3.8-4.1 4.9-5.3 4.3-4.7 25.3-27.2 31.6-33.9 12.1-13 11.9-12.7 11.9-16.5v-3.6h-30.1l-4.7 5.1c-2.6 2.9-11.4 12.2-19.7 20.9-8.2 8.6-17 17.8-19.4 20.4-6.1 6.6-17.3 18.1-17.5 18.1-.1 0-.1-14.4-.1-32s-.2-32.1-.5-32.1c-.3-.1-7.6-.2-16.2-.3l-15.8-.1v70z"/></svg>